<svg version="1.1" xmlns="http://www.w3.org/2000/svg" viewBox="0 0 2431.8275135111326 631.920513939622" width="2431.8275135111326" height="631.920513939622">
  <!-- svg-source:excalidraw -->
  
  <defs>
    <style class="style-fonts">
      @font-face {
        font-family: "Virgil";
        src: url("https://excalidraw.com/Virgil.woff2");
      }
      @font-face {
        font-family: "Cascadia";
        src: url("https://excalidraw.com/Cascadia.woff2");
      }
      @font-face {
        font-family: "Assistant";
        src: url("https://excalidraw.com/Assistant-Regular.woff2");
      }
    </style>
    
  </defs>
  <rect x="0" y="0" width="2431.8275135111326" height="631.920513939622" fill="#ffffff"></rect><g stroke-linecap="round" transform="translate(146.2046805600403 99.36802356626231) rotate(0 179.08252107960607 157.0307823252761)"><path d="M32 0 C123.34 0, 214.68 0, 326.17 0 C347.5 0, 358.17 10.67, 358.17 32 C358.17 126.17, 358.17 220.33, 358.17 282.06 C358.17 303.39, 347.5 314.06, 326.17 314.06 C246.76 314.06, 167.35 314.06, 32 314.06 C10.67 314.06, 0 303.39, 0 282.06 C0 221.25, 0 160.44, 0 32 C0 10.67, 10.67 0, 32 0" stroke="none" stroke-width="0" fill="#e9ecef"></path><path d="M32 0 C144.64 0, 257.28 0, 326.17 0 M32 0 C91.42 0, 150.84 0, 326.17 0 M326.17 0 C347.5 0, 358.17 10.67, 358.17 32 M326.17 0 C347.5 0, 358.17 10.67, 358.17 32 M358.17 32 C358.17 93.84, 358.17 155.69, 358.17 282.06 M358.17 32 C358.17 122.79, 358.17 213.58, 358.17 282.06 M358.17 282.06 C358.17 303.39, 347.5 314.06, 326.17 314.06 M358.17 282.06 C358.17 303.39, 347.5 314.06, 326.17 314.06 M326.17 314.06 C213.27 314.06, 100.37 314.06, 32 314.06 M326.17 314.06 C248.36 314.06, 170.55 314.06, 32 314.06 M32 314.06 C10.67 314.06, 0 303.39, 0 282.06 M32 314.06 C10.67 314.06, 0 303.39, 0 282.06 M0 282.06 C0 219.75, 0 157.44, 0 32 M0 282.06 C0 204.93, 0 127.8, 0 32 M0 32 C0 10.67, 10.67 0, 32 0 M0 32 C0 10.67, 10.67 0, 32 0" stroke="transparent" stroke-width="4" fill="none"></path></g><g stroke-linecap="round" transform="translate(225.26957385488276 207.96009770640558) rotate(0 73.24894918919972 70.79540419900667)"><path d="M0 0 L146.5 0 L146.5 141.59 L0 141.59" stroke="none" stroke-width="0" fill="#b2f2bb"></path><path d="M0 0 C32.49 0, 64.97 0, 146.5 0 M0 0 C51.9 0, 103.8 0, 146.5 0 M146.5 0 C146.5 34.77, 146.5 69.54, 146.5 141.59 M146.5 0 C146.5 38.89, 146.5 77.78, 146.5 141.59 M146.5 141.59 C93.65 141.59, 40.8 141.59, 0 141.59 M146.5 141.59 C96.62 141.59, 46.73 141.59, 0 141.59 M0 141.59 C0 87.25, 0 32.91, 0 0 M0 141.59 C0 104.14, 0 66.69, 0 0" stroke="#2f9e44" stroke-width="4" fill="none"></path></g><g stroke-linecap="round"><g transform="translate(224.76929638946967 205.80574573278818) rotate(0 98.6028844987618 -25.883489638155538)" fill-rule="evenodd"><path d="M0 0 L48.63 -53.33 L197.21 -51.09 L144.89 1.56 L0 0" stroke="none" stroke-width="0" fill="#b2f2bb" fill-rule="evenodd"></path><path d="M0 0 C11.66 -12.79, 23.32 -25.58, 48.63 -53.33 M0 0 C14.52 -15.93, 29.04 -31.85, 48.63 -53.33 M48.63 -53.33 C79.96 -52.86, 111.28 -52.38, 197.21 -51.09 M48.63 -53.33 C102.6 -52.51, 156.58 -51.7, 197.21 -51.09 M197.21 -51.09 C185.5 -39.31, 173.8 -27.53, 144.89 1.56 M197.21 -51.09 C182.99 -36.78, 168.78 -22.47, 144.89 1.56 M144.89 1.56 C99.1 1.07, 53.32 0.58, 0 0 M144.89 1.56 C90.11 0.97, 35.32 0.38, 0 0 M0 0 C0 0, 0 0, 0 0 M0 0 C0 0, 0 0, 0 0" stroke="#2f9e44" stroke-width="4" fill="none"></path></g></g><mask></mask><g stroke-linecap="round"><g transform="translate(374.7182346940099 202.68302596222293) rotate(0 26.27480550221935 49.15394885211839)" fill-rule="evenodd"><path d="M0 0 L-0.78 148.17 L53.33 93.09 L49.13 -49.86 L0 0" stroke="none" stroke-width="0" fill="#b2f2bb" fill-rule="evenodd"></path><path d="M0 0 C-0.24 44.52, -0.47 89.03, -0.78 148.17 M0 0 C-0.25 46.58, -0.49 93.16, -0.78 148.17 M-0.78 148.17 C15.27 131.84, 31.32 115.5, 53.33 93.09 M-0.78 148.17 C15.1 132.01, 30.98 115.85, 53.33 93.09 M53.33 93.09 C51.99 47.33, 50.64 1.56, 49.13 -49.86 M53.33 93.09 C52.42 62.07, 51.51 31.05, 49.13 -49.86 M49.13 -49.86 C31.7 -32.17, 14.26 -14.48, 0 0 M49.13 -49.86 C31.66 -32.13, 14.18 -14.4, 0 0 M0 0 C0 0, 0 0, 0 0 M0 0 C0 0, 0 0, 0 0" stroke="#2f9e44" stroke-width="4" fill="none"></path></g></g><mask></mask><g transform="translate(263.0656340911082 247.42527035544595) rotate(0 42.151123046875 23.602590887006443)"><text x="0" y="0" font-family="Helvetica, Segoe UI Emoji" font-size="41.047984151315525px" fill="#1e1e1e" text-anchor="start" style="white-space: pre;" direction="ltr" dominant-baseline="text-before-edge">SDK</text></g><g stroke-linecap="round" transform="translate(163.33792351976444 250.55293915518405) rotate(95.96448710125308 12.726803195017055 11.817745823944506)"><path d="M25.45 11.82 C25.45 12.5, 25.39 13.2, 25.26 13.87 C25.13 14.54, 24.94 15.22, 24.69 15.86 C24.43 16.5, 24.12 17.13, 23.75 17.73 C23.38 18.32, 22.95 18.89, 22.48 19.41 C22 19.94, 21.47 20.43, 20.91 20.87 C20.34 21.31, 19.73 21.71, 19.09 22.05 C18.45 22.39, 17.77 22.69, 17.08 22.92 C16.39 23.16, 15.66 23.34, 14.94 23.46 C14.21 23.57, 13.46 23.64, 12.73 23.64 C11.99 23.64, 11.24 23.57, 10.52 23.46 C9.79 23.34, 9.07 23.16, 8.37 22.92 C7.68 22.69, 7 22.39, 6.36 22.05 C5.73 21.71, 5.11 21.31, 4.55 20.87 C3.98 20.43, 3.45 19.94, 2.98 19.41 C2.5 18.89, 2.07 18.32, 1.71 17.73 C1.34 17.13, 1.02 16.5, 0.77 15.86 C0.52 15.22, 0.32 14.54, 0.19 13.87 C0.07 13.2, 0 12.5, 0 11.82 C0 11.13, 0.07 10.44, 0.19 9.77 C0.32 9.09, 0.52 8.42, 0.77 7.78 C1.02 7.13, 1.34 6.5, 1.71 5.91 C2.07 5.32, 2.5 4.75, 2.98 4.22 C3.45 3.7, 3.98 3.2, 4.55 2.76 C5.11 2.33, 5.73 1.93, 6.36 1.58 C7 1.24, 7.68 0.95, 8.37 0.71 C9.07 0.48, 9.79 0.3, 10.52 0.18 C11.24 0.06, 11.99 0, 12.73 0 C13.46 0, 14.21 0.06, 14.94 0.18 C15.66 0.3, 16.39 0.48, 17.08 0.71 C17.77 0.95, 18.45 1.24, 19.09 1.58 C19.73 1.93, 20.34 2.33, 20.91 2.76 C21.47 3.2, 22 3.7, 22.48 4.22 C22.95 4.75, 23.38 5.32, 23.75 5.91 C24.12 6.5, 24.43 7.13, 24.69 7.78 C24.94 8.42, 25.13 9.09, 25.26 9.77 C25.39 10.44, 25.42 11.48, 25.45 11.82 C25.49 12.16, 25.49 11.48, 25.45 11.82" stroke="#000000" stroke-width="1" fill="none"></path></g><g stroke-linecap="round"><g transform="translate(134.28893187709764 229.31565355103544) rotate(95.96448710125308 0.7666088769929047 28.391309014250794)"><path d="M0 0 C0.26 9.46, 1.28 47.32, 1.53 56.78 M0 0 C0.26 9.46, 1.28 47.32, 1.53 56.78" stroke="#000000" stroke-width="1" fill="none"></path></g></g><mask></mask><g stroke-linecap="round" transform="translate(11.400220214785804 240.70530445664303) rotate(89.86737157398699 13.317247389551994 12.106588535956007)"><path d="M0 0 C0 0, 0 0, 0 0 M0 0 C0 0, 0 0, 0 0 M-0.26 6.4 C1.04 4.91, 2.33 3.41, 4.99 0.36 M-0.26 6.4 C1.04 4.9, 2.34 3.41, 4.99 0.36 M0.13 12.04 C3.38 8.31, 6.62 4.58, 10.63 -0.03 M0.13 12.04 C3.58 8.07, 7.03 4.11, 10.63 -0.03 M-0.13 18.44 C5.53 11.93, 11.18 5.43, 15.62 0.33 M-0.13 18.44 C3.18 14.64, 6.48 10.83, 15.62 0.33 M0.27 24.08 C8.23 14.92, 16.19 5.77, 21.26 -0.07 M0.27 24.08 C4.51 19.21, 8.74 14.33, 21.26 -0.07 M5.25 24.44 C13.61 14.83, 21.97 5.21, 26.25 0.29 M5.25 24.44 C9.55 19.5, 13.85 14.55, 26.25 0.29 M10.9 24.05 C14.47 19.94, 18.04 15.83, 27.3 5.18 M10.9 24.05 C17.19 16.81, 23.48 9.57, 27.3 5.18 M15.88 24.41 C19.64 20.08, 23.4 15.76, 27.04 11.58 M15.88 24.41 C18.6 21.28, 21.32 18.16, 27.04 11.58 M21.53 24.01 C23.17 22.12, 24.81 20.23, 27.43 17.22 M21.53 24.01 C23.32 21.95, 25.12 19.88, 27.43 17.22 M0.09 24.29 C0.09 24.29, 0.09 24.29, 0.09 24.29 M0.09 24.29 C0.09 24.29, 0.09 24.29, 0.09 24.29 M5.73 23.89 C3.45 21.91, 1.16 19.92, -0.31 18.65 M5.73 23.89 C4.33 22.68, 2.93 21.46, -0.31 18.65 M12.13 24.16 C9.49 21.86, 6.84 19.56, 0.05 13.66 M12.13 24.16 C8.66 21.15, 5.2 18.14, 0.05 13.66 M18.53 24.42 C12.94 19.57, 7.36 14.71, -0.34 8.02 M18.53 24.42 C13.42 19.98, 8.32 15.55, -0.34 8.02 M24.17 24.02 C16.45 17.31, 8.73 10.6, 0.02 3.03 M24.17 24.02 C16.88 17.69, 9.6 11.36, 0.02 3.03 M26.79 21 C17.5 12.93, 8.21 4.85, 1.89 -0.65 M26.79 21 C17.73 13.12, 8.66 5.24, 1.89 -0.65 M27.15 16.02 C22.68 12.13, 18.21 8.25, 8.28 -0.39 M27.15 16.02 C19.96 9.76, 12.76 3.5, 8.28 -0.39 M26.76 10.37 C22.73 6.87, 18.7 3.37, 13.93 -0.78 M26.76 10.37 C23.01 7.11, 19.25 3.85, 13.93 -0.78 M27.12 5.39 C24.7 3.29, 22.28 1.18, 20.33 -0.52 M27.12 5.39 C24.91 3.46, 22.7 1.54, 20.33 -0.52" stroke="#fd7e14" stroke-width="0.5" fill="none"></path><path d="M0 0 C5.43 0, 10.85 0, 26.63 0 M0 0 C5.84 0, 11.69 0, 26.63 0 M26.63 0 C26.63 7.89, 26.63 15.77, 26.63 24.21 M26.63 0 C26.63 8.75, 26.63 17.5, 26.63 24.21 M26.63 24.21 C19.47 24.21, 12.3 24.21, 0 24.21 M26.63 24.21 C16.68 24.21, 6.72 24.21, 0 24.21 M0 24.21 C0 18.11, 0 12.01, 0 0 M0 24.21 C0 15.9, 0 7.58, 0 0" stroke="#000000" stroke-width="1" fill="none"></path></g><g stroke-linecap="round"><g transform="translate(69.10159383095015 222.2035393186993) rotate(95.96448710125308 3.7261036298696126 33.81798337267281)"><path d="M0 0 C1.24 11.27, 6.21 56.36, 7.45 67.64 M0 0 C1.24 11.27, 6.21 56.36, 7.45 67.64" stroke="#000000" stroke-width="1" fill="none"></path></g></g><mask></mask><g stroke-opacity="0.6" fill-opacity="0.6" stroke-linecap="round" transform="translate(1066.24693483187 115.09978466714745) rotate(0 93.05361063563669 177.97268850264442)"><path d="M9.08 14.52 C9.08 14.52, 9.08 14.52, 9.08 14.52 M9.08 14.52 C9.08 14.52, 9.08 14.52, 9.08 14.52 M3.57 26.95 C9.39 20.26, 15.21 13.56, 22.6 5.07 M3.57 26.95 C9.81 19.78, 16.04 12.61, 22.6 5.07 M1.34 35.62 C7.19 28.89, 13.04 22.16, 30.21 2.41 M1.34 35.62 C12.67 22.58, 24 9.55, 30.21 2.41 M0.42 42.77 C14.95 26.06, 29.48 9.34, 37.16 0.51 M0.42 42.77 C9.29 32.57, 18.16 22.37, 37.16 0.51 M0.82 48.41 C10.07 37.77, 19.32 27.13, 42.81 0.11 M0.82 48.41 C15.73 31.26, 30.63 14.11, 42.81 0.11 M0.56 54.81 C10.52 43.34, 20.49 31.88, 47.79 0.47 M0.56 54.81 C12.56 41, 24.56 27.2, 47.79 0.47 M0.95 60.45 C12.7 46.93, 24.46 33.41, 53.44 0.08 M0.95 60.45 C20.58 37.88, 40.2 15.3, 53.44 0.08 M0.69 66.85 C21.65 42.74, 42.61 18.62, 58.42 0.44 M0.69 66.85 C20.31 44.28, 39.93 21.71, 58.42 0.44 M0.43 73.25 C19.85 50.91, 39.26 28.57, 64.07 0.04 M0.43 73.25 C15.82 55.54, 31.22 37.83, 64.07 0.04 M0.82 78.89 C16.14 61.28, 31.45 43.66, 69.05 0.4 M0.82 78.89 C21.98 54.55, 43.15 30.21, 69.05 0.4 M0.56 85.29 C24.14 58.17, 47.71 31.05, 74.7 0.01 M0.56 85.29 C29.42 52.09, 58.29 18.89, 74.7 0.01 M0.96 90.93 C26.97 61, 52.99 31.07, 79.68 0.37 M0.96 90.93 C17.81 71.55, 34.66 52.16, 79.68 0.37 M0.7 97.33 C24.32 70.15, 47.95 42.97, 85.33 -0.03 M0.7 97.33 C24.72 69.69, 48.75 42.05, 85.33 -0.03 M0.43 103.73 C34.5 64.54, 68.57 25.35, 90.31 0.33 M0.43 103.73 C30.82 68.77, 61.21 33.81, 90.31 0.33 M0.83 109.37 C35.81 69.13, 70.79 28.89, 95.96 -0.06 M0.83 109.37 C22.8 84.1, 44.76 58.83, 95.96 -0.06 M0.57 115.77 C23.7 89.16, 46.84 62.54, 100.94 0.3 M0.57 115.77 C21.28 91.94, 41.99 68.12, 100.94 0.3 M0.96 121.41 C35.32 81.89, 69.67 42.37, 106.59 -0.1 M0.96 121.41 C40.38 76.07, 79.8 30.72, 106.59 -0.1 M0.7 127.81 C34.81 88.57, 68.92 49.33, 111.57 0.26 M0.7 127.81 C42.85 79.32, 85.01 30.82, 111.57 0.26 M0.44 134.21 C30.32 99.83, 60.2 65.46, 117.22 -0.13 M0.44 134.21 C34.41 95.12, 68.39 56.04, 117.22 -0.13 M0.83 139.85 C48.88 84.58, 96.93 29.31, 122.2 0.23 M0.83 139.85 C32.24 103.72, 63.65 67.59, 122.2 0.23 M0.57 146.25 C29.36 113.13, 58.15 80.02, 127.85 -0.17 M0.57 146.25 C26.28 116.68, 51.98 87.11, 127.85 -0.17 M0.97 151.89 C33.01 115.03, 65.06 78.16, 132.83 0.19 M0.97 151.89 C37.7 109.63, 74.44 67.37, 132.83 0.19 M0.7 158.29 C37.25 116.25, 73.8 74.2, 138.48 -0.2 M0.7 158.29 C50.51 100.99, 100.32 43.69, 138.48 -0.2 M0.44 164.69 C51.85 105.55, 103.26 46.41, 143.46 0.16 M0.44 164.69 C45.3 113.09, 90.15 61.49, 143.46 0.16 M0.84 170.33 C54.44 108.67, 108.05 47, 147.8 1.28 M0.84 170.33 C39.4 125.97, 77.97 81.6, 147.8 1.28 M0.58 176.73 C33.76 138.55, 66.95 100.38, 152.78 1.64 M0.58 176.73 C42.5 128.51, 84.42 80.28, 152.78 1.64 M0.97 182.37 C44.68 132.09, 88.38 81.81, 157.77 2 M0.97 182.37 C37.8 140, 74.63 97.63, 157.77 2 M0.71 188.77 C41.55 141.79, 82.39 94.81, 161.44 3.86 M0.71 188.77 C51.02 130.89, 101.33 73.02, 161.44 3.86 M0.45 195.17 C53.77 133.83, 107.09 72.48, 165.12 5.73 M0.45 195.17 C41.08 148.43, 81.71 101.69, 165.12 5.73 M0.84 200.81 C45.43 149.52, 90.01 98.24, 168.79 7.6 M0.84 200.81 C36.6 159.67, 72.36 118.54, 168.79 7.6 M0.58 207.21 C65.74 132.25, 130.9 57.29, 172.47 9.47 M0.58 207.21 C52.7 147.25, 104.82 87.29, 172.47 9.47 M0.32 213.61 C37.41 170.94, 74.49 128.28, 174.83 12.85 M0.32 213.61 C69.98 133.47, 139.64 53.34, 174.83 12.85 M0.71 219.25 C51.4 160.94, 102.09 102.63, 177.85 15.48 M0.71 219.25 C44.49 168.89, 88.26 118.54, 177.85 15.48 M0.45 225.65 C39.66 180.54, 78.87 135.44, 180.21 18.86 M0.45 225.65 C60.36 156.73, 120.27 87.81, 180.21 18.86 M0.85 231.29 C45.96 179.4, 91.07 127.5, 181.92 22.99 M0.85 231.29 C65.8 156.57, 130.75 81.86, 181.92 22.99 M0.59 237.69 C67.87 160.28, 135.16 82.88, 183.63 27.12 M0.59 237.69 C58.11 171.51, 115.63 105.34, 183.63 27.12 M0.32 244.08 C43.73 194.16, 87.13 144.23, 185.33 31.26 M0.32 244.08 C66.14 168.38, 131.95 92.67, 185.33 31.26 M0.72 249.73 C57.85 184, 114.99 118.28, 185.73 36.9 M0.72 249.73 C52.27 190.42, 103.83 131.11, 185.73 36.9 M0.46 256.13 C69.46 176.75, 138.47 97.36, 186.12 42.54 M0.46 256.13 C73.52 172.08, 146.57 88.04, 186.12 42.54 M0.85 261.77 C47.67 207.92, 94.48 154.06, 186.52 48.19 M0.85 261.77 C38.08 218.95, 75.3 176.13, 186.52 48.19 M0.59 268.17 C65.93 193, 131.27 117.83, 186.26 54.58 M0.59 268.17 C49.75 211.62, 98.91 155.07, 186.26 54.58 M0.33 274.56 C69.34 195.17, 138.35 115.79, 186.65 60.23 M0.33 274.56 C54.6 212.13, 108.87 149.7, 186.65 60.23 M0.72 280.21 C43.34 231.19, 85.95 182.17, 186.39 66.62 M0.72 280.21 C74.96 194.81, 149.19 109.42, 186.39 66.62 M0.46 286.61 C74.53 201.4, 148.6 116.19, 186.13 73.02 M0.46 286.61 C37.6 243.88, 74.74 201.16, 186.13 73.02 M0.86 292.25 C41.89 245.05, 82.92 197.84, 186.52 78.67 M0.86 292.25 C50.32 235.35, 99.79 178.44, 186.52 78.67 M0.6 298.65 C44.35 248.32, 88.1 197.99, 186.26 85.06 M0.6 298.65 C40.2 253.09, 79.8 207.53, 186.26 85.06 M0.33 305.04 C57.25 239.57, 114.17 174.09, 186.66 90.71 M0.33 305.04 C69.25 225.77, 138.16 146.5, 186.66 90.71 M0.07 311.44 C63.58 238.39, 127.08 165.33, 186.39 97.1 M0.07 311.44 C47.6 256.77, 95.13 202.09, 186.39 97.1 M0.47 317.08 C42.17 269.11, 83.87 221.14, 186.13 103.5 M0.47 317.08 C47.42 263.07, 94.37 209.06, 186.13 103.5 M1.52 321.97 C63.94 250.17, 126.35 178.37, 186.53 109.14 M1.52 321.97 C54.6 260.91, 107.69 199.84, 186.53 109.14 M2.57 326.86 C54.45 267.18, 106.33 207.5, 186.27 115.54 M2.57 326.86 C56.9 264.36, 111.24 201.85, 186.27 115.54 M4.28 331 C42.69 286.81, 81.1 242.62, 186.66 121.19 M4.28 331 C60.42 266.41, 116.56 201.82, 186.66 121.19 M5.98 335.13 C68.32 263.41, 130.67 191.7, 186.4 127.58 M5.98 335.13 C63.05 269.48, 120.12 203.82, 186.4 127.58 M7.69 339.26 C62.72 275.95, 117.76 212.64, 186.14 133.98 M7.69 339.26 C70.92 266.52, 134.15 193.79, 186.14 133.98 M10.05 342.64 C52.95 293.29, 95.85 243.94, 186.53 139.62 M10.05 342.64 C75.31 267.57, 140.57 192.49, 186.53 139.62 M13.07 345.27 C72.15 277.3, 131.23 209.34, 186.27 146.02 M13.07 345.27 C65.11 285.4, 117.15 225.54, 186.27 146.02 M16.09 347.89 C78.39 276.22, 140.69 204.55, 186.01 152.42 M16.09 347.89 C75.38 279.68, 134.68 211.47, 186.01 152.42 M19.76 349.76 C83.35 276.62, 146.93 203.47, 186.4 158.06 M19.76 349.76 C62.71 300.35, 105.66 250.95, 186.4 158.06 M23.44 351.63 C67.42 301.03, 111.4 250.44, 186.14 164.46 M23.44 351.63 C85.93 279.74, 148.42 207.86, 186.14 164.46 M27.11 353.5 C69.38 304.88, 111.64 256.26, 186.54 170.1 M27.11 353.5 C86.92 284.7, 146.73 215.9, 186.54 170.1 M31.45 354.61 C73.36 306.39, 115.28 258.18, 186.28 176.5 M31.45 354.61 C69.06 311.34, 106.67 268.07, 186.28 176.5 M35.78 355.73 C94.31 288.39, 152.85 221.05, 186.01 182.9 M35.78 355.73 C71.72 314.38, 107.67 273.02, 186.01 182.9 M40.76 356.09 C76.73 314.71, 112.69 273.34, 186.41 188.54 M40.76 356.09 C88.95 300.66, 137.13 245.23, 186.41 188.54 M45.75 356.45 C90.04 305.5, 134.33 254.55, 186.15 194.94 M45.75 356.45 C84.23 312.18, 122.72 267.91, 186.15 194.94 M50.74 356.81 C83.41 319.22, 116.08 281.64, 186.54 200.58 M50.74 356.81 C90.19 311.43, 129.63 266.05, 186.54 200.58 M56.38 356.41 C103.85 301.81, 151.32 247.2, 186.28 206.98 M56.38 356.41 C100.7 305.43, 145.01 254.45, 186.28 206.98 M61.37 356.77 C93.25 320.1, 125.12 283.43, 186.02 213.38 M61.37 356.77 C86.57 327.78, 111.78 298.78, 186.02 213.38 M67.01 356.38 C93.87 325.48, 120.72 294.59, 186.41 219.02 M67.01 356.38 C107.55 309.75, 148.08 263.12, 186.41 219.02 M72 356.74 C101.57 322.72, 131.14 288.71, 186.15 225.42 M72 356.74 C115.81 306.34, 159.61 255.95, 186.15 225.42 M77.64 356.34 C114.86 313.53, 152.09 270.71, 186.55 231.06 M77.64 356.34 C100.03 330.59, 122.42 304.83, 186.55 231.06 M82.63 356.7 C121.97 311.45, 161.31 266.19, 186.28 237.46 M82.63 356.7 C123.1 310.15, 163.57 263.59, 186.28 237.46 M88.27 356.31 C120.17 319.61, 152.08 282.91, 186.02 243.86 M88.27 356.31 C118.92 321.06, 149.56 285.8, 186.02 243.86 M93.26 356.67 C122.03 323.57, 150.81 290.46, 186.42 249.5 M93.26 356.67 C113.28 333.63, 133.31 310.59, 186.42 249.5 M98.9 356.28 C129.57 320.99, 160.24 285.71, 186.16 255.9 M98.9 356.28 C122.87 328.7, 146.85 301.12, 186.16 255.9 M103.89 356.64 C128.78 328, 153.68 299.36, 186.55 261.54 M103.89 356.64 C127.67 329.28, 151.45 301.93, 186.55 261.54 M109.53 356.24 C136.59 325.11, 163.66 293.98, 186.29 267.94 M109.53 356.24 C135.5 326.36, 161.47 296.49, 186.29 267.94 M114.52 356.6 C141.19 325.92, 167.86 295.24, 186.03 274.34 M114.52 356.6 C134.28 333.87, 154.03 311.14, 186.03 274.34 M120.16 356.21 C135.23 338.87, 150.3 321.54, 186.42 279.98 M120.16 356.21 C146.06 326.42, 171.95 296.63, 186.42 279.98 M125.15 356.57 C143.66 335.27, 162.17 313.97, 186.16 286.38 M125.15 356.57 C142.6 336.48, 160.06 316.4, 186.16 286.38 M130.79 356.17 C143.97 341.01, 157.15 325.85, 186.56 292.02 M130.79 356.17 C150.65 333.32, 170.52 310.47, 186.56 292.02 M135.78 356.53 C147.6 342.93, 159.43 329.32, 186.29 298.42 M135.78 356.53 C148.91 341.43, 162.04 326.32, 186.29 298.42 M141.42 356.14 C150.44 345.76, 159.47 335.38, 186.03 304.82 M141.42 356.14 C159.09 335.82, 176.75 315.49, 186.03 304.82 M147.06 355.74 C157.66 343.56, 168.25 331.37, 186.43 310.46 M147.06 355.74 C161.94 338.63, 176.82 321.51, 186.43 310.46 M152.71 355.35 C163.1 343.4, 173.49 331.44, 186.17 316.86 M152.71 355.35 C163.05 343.45, 173.4 331.54, 186.17 316.86 M159.66 353.44 C166.52 345.56, 173.38 337.67, 184.59 324.77 M159.66 353.44 C166.1 346.04, 172.53 338.64, 184.59 324.77 M169.9 347.77 C173.55 343.57, 177.19 339.37, 181.71 334.18 M169.9 347.77 C173.82 343.25, 177.75 338.73, 181.71 334.18 M14.88 347.18 C14.88 347.18, 14.88 347.18, 14.88 347.18 M14.88 347.18 C14.88 347.18, 14.88 347.18, 14.88 347.18 M28.07 353.34 C20.87 347.08, 13.66 340.82, 4.67 333.01 M28.07 353.34 C20.12 346.44, 12.18 339.53, 4.67 333.01 M35.98 354.92 C26.72 346.87, 17.47 338.83, 2.77 326.05 M35.98 354.92 C23.93 344.44, 11.88 333.97, 2.77 326.05 M42.38 355.18 C26.59 341.46, 10.81 327.74, 0.87 319.1 M42.38 355.18 C32.32 346.43, 22.25 337.69, 0.87 319.1 M48.77 355.44 C38.05 346.12, 27.32 336.79, 0.47 313.45 M48.77 355.44 C38.6 346.6, 28.43 337.76, 0.47 313.45 M54.42 355.05 C34.78 337.98, 15.15 320.91, 0.08 307.81 M54.42 355.05 C33.24 336.64, 12.07 318.24, 0.08 307.81 M60.81 355.31 C47.06 343.35, 33.31 331.4, 0.44 302.82 M60.81 355.31 C44.73 341.32, 28.64 327.34, 0.44 302.82 M67.21 355.57 C50.49 341.03, 33.77 326.5, 0.04 297.18 M67.21 355.57 C42.5 334.08, 17.78 312.6, 0.04 297.18 M72.86 355.17 C45.69 331.56, 18.52 307.95, 0.4 292.19 M72.86 355.17 C48.53 334.03, 24.2 312.88, 0.4 292.19 M79.25 355.44 C63.12 341.42, 46.99 327.39, 0.01 286.55 M79.25 355.44 C63.29 341.56, 47.34 327.69, 0.01 286.55 M84.9 355.04 C59.1 332.62, 33.31 310.2, 0.37 281.56 M84.9 355.04 C62.82 335.85, 40.74 316.66, 0.37 281.56 M91.29 355.3 C59.52 327.69, 27.75 300.07, -0.03 275.92 M91.29 355.3 C59.2 327.41, 27.11 299.51, -0.03 275.92 M97.69 355.56 C76.03 336.73, 54.36 317.9, 0.33 270.93 M97.69 355.56 C66.24 328.22, 34.79 300.88, 0.33 270.93 M103.33 355.17 C65.35 322.15, 27.36 289.12, -0.06 265.29 M103.33 355.17 C70.55 326.67, 37.77 298.17, -0.06 265.29 M109.73 355.43 C77.6 327.5, 45.47 299.57, 0.3 260.3 M109.73 355.43 C83.56 332.68, 57.39 309.93, 0.3 260.3 M115.38 355.04 C79.59 323.93, 43.81 292.82, -0.09 254.66 M115.38 355.04 C88.25 331.46, 61.13 307.88, -0.09 254.66 M121.77 355.3 C91.69 329.15, 61.6 302.99, 0.27 249.67 M121.77 355.3 C77.46 316.78, 33.14 278.25, 0.27 249.67 M128.17 355.56 C78.68 312.54, 29.19 269.52, -0.13 244.03 M128.17 355.56 C92.39 324.46, 56.61 293.35, -0.13 244.03 M133.81 355.16 C83.58 311.5, 33.36 267.84, 0.23 239.04 M133.81 355.16 C94.74 321.2, 55.66 287.23, 0.23 239.04 M140.21 355.43 C88.59 310.55, 36.96 265.67, -0.16 233.4 M140.21 355.43 C103.63 323.63, 67.05 291.83, -0.16 233.4 M145.86 355.03 C97.35 312.87, 48.85 270.71, 0.2 228.41 M145.86 355.03 C109.02 323.01, 72.19 291, 0.2 228.41 M151.5 354.64 C92.13 303.03, 32.77 251.43, -0.2 222.77 M151.5 354.64 C116.76 324.44, 82.02 294.24, -0.2 222.77 M156.39 353.59 C104.03 308.08, 51.68 262.57, 0.16 217.78 M156.39 353.59 C107.41 311.01, 58.43 268.43, 0.16 217.78 M161.27 352.54 C104.32 303.03, 47.36 253.52, 0.52 212.8 M161.27 352.54 C117.76 314.71, 74.25 276.88, 0.52 212.8 M164.65 350.17 C105.18 298.47, 45.7 246.77, 0.13 207.15 M164.65 350.17 C102.18 295.86, 39.7 241.55, 0.13 207.15 M168.79 348.47 C115.43 302.09, 62.08 255.71, 0.49 202.17 M168.79 348.47 C116.67 303.16, 64.56 257.86, 0.49 202.17 M172.17 346.1 C111.29 293.19, 50.42 240.27, 0.09 196.52 M172.17 346.1 C104.32 287.12, 36.47 228.14, 0.09 196.52 M174.79 343.08 C122.08 297.27, 69.38 251.45, 0.45 191.53 M174.79 343.08 C121.2 296.5, 67.61 249.91, 0.45 191.53 M177.41 340.07 C139.11 306.77, 100.81 273.47, 0.06 185.89 M177.41 340.07 C117.56 288.03, 57.7 236, 0.06 185.89 M180.04 337.05 C126.95 290.89, 73.85 244.74, 0.42 180.9 M180.04 337.05 C132.8 295.99, 85.57 254.92, 0.42 180.9 M181.91 333.37 C142.85 299.42, 103.79 265.47, 0.02 175.26 M181.91 333.37 C140.61 297.47, 99.3 261.56, 0.02 175.26 M183.02 329.04 C138.34 290.2, 93.66 251.36, 0.38 170.27 M183.02 329.04 C144.14 295.24, 105.26 261.44, 0.38 170.27 M184.89 325.37 C114.78 264.42, 44.67 203.47, -0.01 164.63 M184.89 325.37 C126.03 274.2, 67.17 223.03, -0.01 164.63 M185.25 320.38 C137.2 278.61, 89.15 236.84, 0.35 159.64 M185.25 320.38 C142.51 283.22, 99.76 246.06, 0.35 159.64 M185.61 315.39 C129.75 266.83, 73.89 218.27, -0.05 154 M185.61 315.39 C129.16 266.32, 72.72 217.25, -0.05 154 M185.97 310.41 C146.23 275.85, 106.48 241.3, 0.31 149.01 M185.97 310.41 C143.39 273.39, 100.8 236.37, 0.31 149.01 M186.33 305.42 C124.08 251.3, 61.83 197.19, -0.08 143.37 M186.33 305.42 C127.71 254.46, 69.09 203.5, -0.08 143.37 M185.94 299.78 C122.32 244.47, 58.7 189.17, 0.28 138.38 M185.94 299.78 C119.76 242.24, 53.58 184.71, 0.28 138.38 M186.3 294.79 C112.67 230.78, 39.03 166.77, -0.11 132.74 M186.3 294.79 C127.14 243.36, 67.98 191.93, -0.11 132.74 M186.66 289.8 C141.28 250.35, 95.9 210.9, 0.25 127.75 M186.66 289.8 C112.28 225.14, 37.9 160.49, 0.25 127.75 M186.26 284.16 C118.58 225.32, 50.89 166.48, -0.15 122.11 M186.26 284.16 C126.98 232.62, 67.69 181.08, -0.15 122.11 M186.62 279.17 C135.03 234.32, 83.43 189.47, 0.21 117.12 M186.62 279.17 C115.6 217.43, 44.58 155.69, 0.21 117.12 M186.23 273.53 C134.05 228.17, 81.88 182.82, -0.18 111.48 M186.23 273.53 C119.26 215.31, 52.29 157.1, -0.18 111.48 M186.59 268.54 C118.45 209.31, 50.31 150.07, 0.18 106.49 M186.59 268.54 C118.74 209.56, 50.89 150.58, 0.18 106.49 M186.2 262.9 C121.32 206.5, 56.44 150.1, 0.54 101.51 M186.2 262.9 C126.55 211.05, 66.9 159.2, 0.54 101.51 M186.56 257.91 C112.91 193.89, 39.27 129.88, 0.14 95.86 M186.56 257.91 C140.52 217.89, 94.48 177.87, 0.14 95.86 M186.16 252.27 C123.34 197.66, 60.51 143.04, 0.5 90.88 M186.16 252.27 C126.4 200.32, 66.65 148.38, 0.5 90.88 M186.52 247.28 C146.78 212.74, 107.04 178.19, 0.11 85.23 M186.52 247.28 C118.2 187.89, 49.88 128.5, 0.11 85.23 M186.13 241.64 C116.36 180.99, 46.59 120.34, 0.47 80.25 M186.13 241.64 C127.4 190.59, 68.67 139.54, 0.47 80.25 M186.49 236.65 C143.56 199.34, 100.63 162.02, 0.07 74.6 M186.49 236.65 C131.2 188.59, 75.91 140.53, 0.07 74.6 M186.09 231.01 C120.5 173.99, 54.91 116.97, 0.43 69.62 M186.09 231.01 C130.88 183.01, 75.66 135.01, 0.43 69.62 M186.45 226.02 C145.59 190.5, 104.73 154.98, 0.04 63.97 M186.45 226.02 C140.08 185.71, 93.71 145.4, 0.04 63.97 M186.06 220.38 C125.73 167.93, 65.39 115.49, 0.4 58.99 M186.06 220.38 C131.21 172.7, 76.37 125.03, 0.4 58.99 M186.42 215.39 C127.65 164.3, 68.88 113.22, 0 53.34 M186.42 215.39 C135.71 171.31, 85 127.23, 0 53.34 M186.02 209.75 C128.95 160.13, 71.88 110.52, 0.36 48.36 M186.02 209.75 C115.83 148.73, 45.64 87.71, 0.36 48.36 M186.38 204.76 C146.21 169.84, 106.04 134.92, 0.72 43.37 M186.38 204.76 C139.43 163.94, 92.48 123.13, 0.72 43.37 M185.99 199.12 C134.26 154.15, 82.54 109.19, 1.08 38.38 M185.99 199.12 C139.64 158.82, 93.28 118.53, 1.08 38.38 M186.35 194.13 C115.56 132.59, 44.77 71.06, 1.44 33.4 M186.35 194.13 C128.02 143.43, 69.7 92.73, 1.44 33.4 M186.71 189.14 C116.07 127.74, 45.44 66.34, 2.56 29.06 M186.71 189.14 C139.56 148.16, 92.41 107.17, 2.56 29.06 M186.31 183.5 C142.93 145.79, 99.55 108.08, 3.67 24.73 M186.31 183.5 C145.92 148.39, 105.53 113.28, 3.67 24.73 M186.67 178.51 C128.17 127.66, 69.67 76.81, 5.54 21.06 M186.67 178.51 C118.86 119.57, 51.06 60.62, 5.54 21.06 M186.28 172.87 C120.85 115.99, 55.42 59.12, 7.41 17.38 M186.28 172.87 C120.27 115.49, 54.25 58.1, 7.41 17.38 M186.64 167.88 C121.98 111.68, 57.32 55.47, 9.28 13.71 M186.64 167.88 C147 133.43, 107.37 98.97, 9.28 13.71 M186.25 162.24 C131.48 114.63, 76.71 67.03, 12.66 11.35 M186.25 162.24 C117.56 102.53, 48.87 42.82, 12.66 11.35 M186.61 157.25 C128.79 107, 70.98 56.74, 15.29 8.33 M186.61 157.25 C142.3 118.74, 97.99 80.22, 15.29 8.33 M186.21 151.61 C120 94.05, 53.79 36.5, 19.42 6.62 M186.21 151.61 C123.65 97.23, 61.09 42.85, 19.42 6.62 M186.57 146.62 C148.37 113.42, 110.18 80.21, 22.8 4.26 M186.57 146.62 C125.55 93.58, 64.53 40.53, 22.8 4.26 M186.18 140.98 C141.1 101.79, 96.02 62.61, 26.93 2.55 M186.18 140.98 C151.35 110.7, 116.52 80.43, 26.93 2.55 M186.54 135.99 C154.66 108.29, 122.79 80.58, 31.82 1.5 M186.54 135.99 C140.79 96.23, 95.05 56.46, 31.82 1.5 M186.14 130.35 C154.73 103.04, 123.31 75.73, 35.95 -0.21 M186.14 130.35 C144.74 94.36, 103.35 58.38, 35.95 -0.21 M186.5 125.36 C132.54 78.46, 78.59 31.55, 41.6 -0.6 M186.5 125.36 C129.18 75.53, 71.85 25.7, 41.6 -0.6 M186.11 119.72 C134.58 74.93, 83.05 30.14, 48 -0.34 M186.11 119.72 C140.2 79.81, 94.29 39.91, 48 -0.34 M186.47 114.73 C158.54 90.46, 130.62 66.18, 54.39 -0.08 M186.47 114.73 C149.79 82.85, 113.12 50.97, 54.39 -0.08 M186.07 109.09 C143.83 72.37, 101.58 35.64, 60.04 -0.47 M186.07 109.09 C159.23 85.76, 132.39 62.42, 60.04 -0.47 M186.43 104.1 C142.66 66.05, 98.89 28, 66.43 -0.21 M186.43 104.1 C140.28 63.98, 94.12 23.85, 66.43 -0.21 M186.79 99.12 C161.91 77.49, 137.03 55.86, 72.83 0.05 M186.79 99.12 C143.61 61.58, 100.43 24.04, 72.83 0.05 M186.4 93.47 C160.87 71.28, 135.34 49.09, 78.47 -0.34 M186.4 93.47 C143.57 56.25, 100.75 19.02, 78.47 -0.34 M186.76 88.49 C155.39 61.22, 124.03 33.95, 84.87 -0.08 M186.76 88.49 C153.21 59.33, 119.67 30.17, 84.87 -0.08 M186.36 82.84 C148.67 50.07, 110.97 17.3, 90.52 -0.48 M186.36 82.84 C164.13 63.52, 141.9 44.19, 90.52 -0.48 M186.72 77.86 C164.13 58.21, 141.53 38.57, 96.91 -0.22 M186.72 77.86 C168.72 62.2, 150.71 46.55, 96.91 -0.22 M186.33 72.21 C156.1 45.93, 125.87 19.65, 103.31 0.05 M186.33 72.21 C165.97 54.51, 145.6 36.81, 103.31 0.05 M186.69 67.23 C166.48 49.66, 146.27 32.09, 108.95 -0.35 M186.69 67.23 C158.19 42.45, 129.69 17.67, 108.95 -0.35 M186.29 61.58 C169.22 46.74, 152.14 31.89, 115.35 -0.09 M186.29 61.58 C170 47.42, 153.71 33.26, 115.35 -0.09 M186.65 56.6 C166.58 39.14, 146.5 21.69, 121 -0.48 M186.65 56.6 C170.95 42.94, 155.24 29.28, 121 -0.48 M186.26 50.95 C169.95 36.77, 153.64 22.59, 127.39 -0.22 M186.26 50.95 C173.59 39.94, 160.91 28.92, 127.39 -0.22 M186.62 45.97 C169.49 31.07, 152.35 16.17, 133.79 0.04 M186.62 45.97 C172.5 33.69, 158.37 21.41, 133.79 0.04 M186.23 40.32 C172.66 28.53, 159.1 16.74, 139.43 -0.35 M186.23 40.32 C173.59 29.34, 160.96 18.36, 139.43 -0.35 M185.08 34.02 C176.86 26.88, 168.63 19.73, 146.59 0.56 M185.08 34.02 C172.09 22.73, 159.1 11.44, 146.59 0.56 M183.17 27.07 C175.57 20.46, 167.98 13.86, 153.74 1.48 M183.17 27.07 C174.37 19.42, 165.57 11.77, 153.74 1.48 M180.51 19.46 C176.46 15.93, 172.4 12.4, 163.16 4.37 M180.51 19.46 C174.03 13.82, 167.54 8.18, 163.16 4.37" stroke="#fab005" stroke-width="0.5" fill="none"></path><path d="M46.53 0 C66.15 0, 85.77 0, 139.58 0 M46.53 0 C80.33 0, 114.14 0, 139.58 0 M139.58 0 C170.6 0, 186.11 15.51, 186.11 46.53 M139.58 0 C170.6 0, 186.11 15.51, 186.11 46.53 M186.11 46.53 C186.11 100.5, 186.11 154.47, 186.11 309.42 M186.11 46.53 C186.11 146.47, 186.11 246.41, 186.11 309.42 M186.11 309.42 C186.11 340.44, 170.6 355.95, 139.58 355.95 M186.11 309.42 C186.11 340.44, 170.6 355.95, 139.58 355.95 M139.58 355.95 C111.01 355.95, 82.44 355.95, 46.53 355.95 M139.58 355.95 C112.15 355.95, 84.72 355.95, 46.53 355.95 M46.53 355.95 C15.51 355.95, 0 340.44, 0 309.42 M46.53 355.95 C15.51 355.95, 0 340.44, 0 309.42 M0 309.42 C0 244.44, 0 179.46, 0 46.53 M0 309.42 C0 244.36, 0 179.3, 0 46.53 M0 46.53 C0 15.51, 15.51 0, 46.53 0 M0 46.53 C0 15.51, 15.51 0, 46.53 0" stroke="#e67700" stroke-width="1" fill="none"></path></g><g stroke-opacity="0.6" fill-opacity="0.6" stroke-linecap="round" transform="translate(1172.1985369173126 269.35497846460953) rotate(0 20.081211706889462 19.463328269754186)"><path d="M4.81 6.83 C4.81 6.83, 4.81 6.83, 4.81 6.83 M4.81 6.83 C4.81 6.83, 4.81 6.83, 4.81 6.83 M0.61 17.75 C4.56 13.21, 8.51 8.66, 15.04 1.15 M0.61 17.75 C5.62 11.99, 10.63 6.23, 15.04 1.15 M1 23.4 C8.33 14.97, 15.65 6.54, 20.68 0.76 M1 23.4 C8.69 14.56, 16.37 5.72, 20.68 0.76 M2.05 28.29 C7.94 21.52, 13.82 14.75, 25.67 1.12 M2.05 28.29 C9.34 19.91, 16.62 11.53, 25.67 1.12 M4.42 31.66 C10.05 25.18, 15.69 18.7, 29.35 2.99 M4.42 31.66 C10.25 24.95, 16.09 18.24, 29.35 2.99 M7.44 34.29 C16.3 24.09, 25.17 13.89, 33.02 4.86 M7.44 34.29 C12.94 27.95, 18.45 21.62, 33.02 4.86 M10.45 36.91 C18.19 28.02, 25.92 19.12, 36.04 7.48 M10.45 36.91 C17.87 28.38, 25.28 19.86, 36.04 7.48 M14.79 38.03 C23.23 28.32, 31.67 18.61, 38.4 10.86 M14.79 38.03 C23.29 28.24, 31.8 18.45, 38.4 10.86 M19.12 39.14 C24.86 32.53, 30.61 25.92, 40.11 14.99 M19.12 39.14 C24.77 32.64, 30.41 26.15, 40.11 14.99 M24.1 39.5 C27.82 35.23, 31.53 30.96, 39.85 21.39 M24.1 39.5 C28.41 34.55, 32.72 29.59, 39.85 21.39 M7.2 34.4 C7.2 34.4, 7.2 34.4, 7.2 34.4 M7.2 34.4 C7.2 34.4, 7.2 34.4, 7.2 34.4 M18.13 38.59 C13.17 34.28, 8.21 29.98, 1.52 24.16 M18.13 38.59 C12.76 33.93, 7.39 29.26, 1.52 24.16 M23.77 38.2 C18.94 34, 14.11 29.8, 0.37 17.86 M23.77 38.2 C18.34 33.48, 12.9 28.75, 0.37 17.86 M28.66 37.15 C22.56 31.84, 16.45 26.54, 1.49 13.53 M28.66 37.15 C20.11 29.72, 11.57 22.29, 1.49 13.53 M32.04 34.79 C22.45 26.45, 12.86 18.11, 2.6 9.2 M32.04 34.79 C25.36 28.99, 18.69 23.19, 2.6 9.2 M35.42 32.42 C27.7 25.72, 19.99 19.01, 5.23 6.18 M35.42 32.42 C26.66 24.81, 17.9 17.2, 5.23 6.18 M37.28 28.75 C29.92 22.34, 22.55 15.94, 8.61 3.82 M37.28 28.75 C26.79 19.63, 16.3 10.51, 8.61 3.82 M39.91 25.73 C28.86 16.13, 17.82 6.53, 11.98 1.46 M39.91 25.73 C30.69 17.72, 21.48 9.71, 11.98 1.46 M40.27 20.74 C33.6 14.95, 26.94 9.15, 16.87 0.4 M40.27 20.74 C32.11 13.65, 23.95 6.56, 16.87 0.4 M40.63 15.76 C36.81 12.43, 32.98 9.11, 22.52 0.01 M40.63 15.76 C34.25 10.21, 27.86 4.66, 22.52 0.01" stroke="#fab005" stroke-width="0.5" fill="none"></path><path d="M40.16 19.46 C40.16 20.59, 40.06 21.73, 39.86 22.84 C39.66 23.95, 39.35 25.06, 38.95 26.12 C38.55 27.18, 38.05 28.22, 37.47 29.19 C36.89 30.17, 36.21 31.11, 35.46 31.97 C34.72 32.84, 33.88 33.65, 32.99 34.37 C32.1 35.1, 31.13 35.76, 30.12 36.32 C29.12 36.88, 28.04 37.37, 26.95 37.75 C25.86 38.14, 24.71 38.44, 23.57 38.63 C22.42 38.83, 21.24 38.93, 20.08 38.93 C18.92 38.93, 17.74 38.83, 16.59 38.63 C15.45 38.44, 14.31 38.14, 13.21 37.75 C12.12 37.37, 11.05 36.88, 10.04 36.32 C9.03 35.76, 8.06 35.1, 7.17 34.37 C6.28 33.65, 5.45 32.84, 4.7 31.97 C3.95 31.11, 3.27 30.17, 2.69 29.19 C2.11 28.22, 1.61 27.18, 1.21 26.12 C0.81 25.06, 0.51 23.95, 0.31 22.84 C0.1 21.73, 0 20.59, 0 19.46 C0 18.34, 0.1 17.19, 0.31 16.08 C0.51 14.97, 0.81 13.87, 1.21 12.81 C1.61 11.75, 2.11 10.71, 2.69 9.73 C3.27 8.76, 3.95 7.82, 4.7 6.95 C5.45 6.09, 6.28 5.28, 7.17 4.55 C8.06 3.83, 9.03 3.17, 10.04 2.61 C11.05 2.04, 12.12 1.56, 13.21 1.17 C14.31 0.79, 15.45 0.49, 16.59 0.3 C17.74 0.1, 18.92 0, 20.08 0 C21.24 0, 22.42 0.1, 23.57 0.3 C24.71 0.49, 25.86 0.79, 26.95 1.17 C28.04 1.56, 29.12 2.04, 30.12 2.61 C31.13 3.17, 32.1 3.83, 32.99 4.55 C33.88 5.28, 34.72 6.09, 35.46 6.95 C36.21 7.82, 36.89 8.76, 37.47 9.73 C38.05 10.71, 38.55 11.75, 38.95 12.81 C39.35 13.87, 39.66 14.97, 39.86 16.08 C40.06 17.19, 40.11 18.9, 40.16 19.46 C40.21 20.03, 40.21 18.9, 40.16 19.46" stroke="#e67700" stroke-width="1" fill="none"></path></g><g stroke-opacity="0.6" fill-opacity="0.6" stroke-linecap="round" transform="translate(1093.750087068045 263.0642356693643) rotate(0 20.081211706889462 19.463328269754186)"><path d="M4.81 6.83 C4.81 6.83, 4.81 6.83, 4.81 6.83 M4.81 6.83 C4.81 6.83, 4.81 6.83, 4.81 6.83 M0.61 17.75 C3.57 14.35, 6.54 10.94, 15.04 1.15 M0.61 17.75 C6.1 11.44, 11.58 5.13, 15.04 1.15 M1 23.4 C5.28 18.48, 9.55 13.56, 20.68 0.76 M1 23.4 C5.51 18.21, 10.01 13.03, 20.68 0.76 M2.05 28.29 C8.34 21.06, 14.62 13.83, 25.67 1.12 M2.05 28.29 C7.2 22.37, 12.34 16.45, 25.67 1.12 M4.42 31.66 C12.99 21.8, 21.57 11.94, 29.35 2.99 M4.42 31.66 C11.18 23.89, 17.94 16.11, 29.35 2.99 M7.44 34.29 C13.6 27.19, 19.77 20.1, 33.02 4.86 M7.44 34.29 C16.48 23.88, 25.53 13.48, 33.02 4.86 M10.45 36.91 C17.36 28.97, 24.27 21.02, 36.04 7.48 M10.45 36.91 C19.26 26.79, 28.06 16.66, 36.04 7.48 M14.79 38.03 C24.02 27.41, 33.25 16.79, 38.4 10.86 M14.79 38.03 C22.15 29.56, 29.51 21.09, 38.4 10.86 M19.12 39.14 C26.19 31.01, 33.26 22.87, 40.11 14.99 M19.12 39.14 C27.31 29.72, 35.5 20.29, 40.11 14.99 M24.1 39.5 C29.43 33.38, 34.76 27.25, 39.85 21.39 M24.1 39.5 C28.1 34.91, 32.09 30.32, 39.85 21.39 M7.2 34.4 C7.2 34.4, 7.2 34.4, 7.2 34.4 M7.2 34.4 C7.2 34.4, 7.2 34.4, 7.2 34.4 M18.13 38.59 C13.67 34.72, 9.2 30.84, 1.52 24.16 M18.13 38.59 C11.85 33.13, 5.56 27.67, 1.52 24.16 M23.77 38.2 C17.41 32.67, 11.04 27.14, 0.37 17.86 M23.77 38.2 C15.32 30.85, 6.86 23.5, 0.37 17.86 M28.66 37.15 C19.7 29.36, 10.73 21.57, 1.49 13.53 M28.66 37.15 C19.9 29.54, 11.14 21.92, 1.49 13.53 M32.04 34.79 C25.09 28.75, 18.14 22.71, 2.6 9.2 M32.04 34.79 C21.46 25.6, 10.89 16.4, 2.6 9.2 M35.42 32.42 C28.41 26.33, 21.4 20.24, 5.23 6.18 M35.42 32.42 C24.55 22.98, 13.69 13.54, 5.23 6.18 M37.28 28.75 C27.75 20.46, 18.22 12.18, 8.61 3.82 M37.28 28.75 C29.35 21.85, 21.42 14.96, 8.61 3.82 M39.91 25.73 C32.97 19.7, 26.03 13.67, 11.98 1.46 M39.91 25.73 C34.27 20.82, 28.62 15.92, 11.98 1.46 M40.27 20.74 C32.9 14.34, 25.53 7.93, 16.87 0.4 M40.27 20.74 C34.57 15.79, 28.87 10.83, 16.87 0.4 M40.63 15.76 C36.75 12.38, 32.87 9.01, 22.52 0.01 M40.63 15.76 C33.41 9.48, 26.2 3.21, 22.52 0.01" stroke="#fab005" stroke-width="0.5" fill="none"></path><path d="M40.16 19.46 C40.16 20.59, 40.06 21.73, 39.86 22.84 C39.66 23.95, 39.35 25.06, 38.95 26.12 C38.55 27.18, 38.05 28.22, 37.47 29.19 C36.89 30.17, 36.21 31.11, 35.46 31.97 C34.72 32.84, 33.88 33.65, 32.99 34.37 C32.1 35.1, 31.13 35.76, 30.12 36.32 C29.12 36.88, 28.04 37.37, 26.95 37.75 C25.86 38.14, 24.71 38.44, 23.57 38.63 C22.42 38.83, 21.24 38.93, 20.08 38.93 C18.92 38.93, 17.74 38.83, 16.59 38.63 C15.45 38.44, 14.31 38.14, 13.21 37.75 C12.12 37.37, 11.05 36.88, 10.04 36.32 C9.03 35.76, 8.06 35.1, 7.17 34.37 C6.28 33.65, 5.45 32.84, 4.7 31.97 C3.95 31.11, 3.27 30.17, 2.69 29.19 C2.11 28.22, 1.61 27.18, 1.21 26.12 C0.81 25.06, 0.51 23.95, 0.31 22.84 C0.1 21.73, 0 20.59, 0 19.46 C0 18.34, 0.1 17.19, 0.31 16.08 C0.51 14.97, 0.81 13.87, 1.21 12.81 C1.61 11.75, 2.11 10.71, 2.69 9.73 C3.27 8.76, 3.95 7.82, 4.7 6.95 C5.45 6.09, 6.28 5.28, 7.17 4.55 C8.06 3.83, 9.03 3.17, 10.04 2.61 C11.05 2.04, 12.12 1.56, 13.21 1.17 C14.31 0.79, 15.45 0.49, 16.59 0.3 C17.74 0.1, 18.92 0, 20.08 0 C21.24 0, 22.42 0.1, 23.57 0.3 C24.71 0.49, 25.86 0.79, 26.95 1.17 C28.04 1.56, 29.12 2.04, 30.12 2.61 C31.13 3.17, 32.1 3.83, 32.99 4.55 C33.88 5.28, 34.72 6.09, 35.46 6.95 C36.21 7.82, 36.89 8.76, 37.47 9.73 C38.05 10.71, 38.55 11.75, 38.95 12.81 C39.35 13.87, 39.66 14.97, 39.86 16.08 C40.06 17.19, 40.11 18.9, 40.16 19.46 C40.21 20.03, 40.21 18.9, 40.16 19.46" stroke="#e67700" stroke-width="1" fill="none"></path></g><g stroke-opacity="0.6" fill-opacity="0.6" stroke-linecap="round" transform="translate(1173.2682384012624 379.42291275030766) rotate(0 20.081211706889462 19.463328269754186)"><path d="M4.81 6.83 C4.81 6.83, 4.81 6.83, 4.81 6.83 M4.81 6.83 C4.81 6.83, 4.81 6.83, 4.81 6.83 M0.61 17.75 C4.49 13.29, 8.37 8.82, 15.04 1.15 M0.61 17.75 C6 11.55, 11.4 5.34, 15.04 1.15 M1 23.4 C5.96 17.69, 10.92 11.99, 20.68 0.76 M1 23.4 C7.76 15.62, 14.52 7.85, 20.68 0.76 M2.05 28.29 C9.5 19.72, 16.94 11.16, 25.67 1.12 M2.05 28.29 C10.82 18.21, 19.58 8.13, 25.67 1.12 M4.42 31.66 C10.58 24.58, 16.74 17.49, 29.35 2.99 M4.42 31.66 C10.59 24.57, 16.76 17.47, 29.35 2.99 M7.44 34.29 C15.34 25.2, 23.24 16.11, 33.02 4.86 M7.44 34.29 C15.84 24.62, 24.25 14.95, 33.02 4.86 M10.45 36.91 C19.64 26.34, 28.83 15.77, 36.04 7.48 M10.45 36.91 C15.83 30.73, 21.2 24.55, 36.04 7.48 M14.79 38.03 C23.74 27.73, 32.7 17.42, 38.4 10.86 M14.79 38.03 C19.55 32.54, 24.32 27.06, 38.4 10.86 M19.12 39.14 C27.47 29.53, 35.83 19.91, 40.11 14.99 M19.12 39.14 C23.42 34.2, 27.72 29.25, 40.11 14.99 M24.1 39.5 C27.53 35.56, 30.96 31.62, 39.85 21.39 M24.1 39.5 C30.15 32.55, 36.19 25.6, 39.85 21.39 M7.2 34.4 C7.2 34.4, 7.2 34.4, 7.2 34.4 M7.2 34.4 C7.2 34.4, 7.2 34.4, 7.2 34.4 M18.13 38.59 C13.5 34.58, 8.88 30.56, 1.52 24.16 M18.13 38.59 C13.07 34.2, 8.02 29.81, 1.52 24.16 M23.77 38.2 C16.49 31.87, 9.2 25.54, 0.37 17.86 M23.77 38.2 C14.99 30.56, 6.2 22.93, 0.37 17.86 M28.66 37.15 C18.38 28.22, 8.11 19.29, 1.49 13.53 M28.66 37.15 C22.37 31.68, 16.08 26.21, 1.49 13.53 M32.04 34.79 C25.6 29.19, 19.16 23.59, 2.6 9.2 M32.04 34.79 C23.6 27.45, 15.16 20.11, 2.6 9.2 M35.42 32.42 C26.49 24.66, 17.56 16.9, 5.23 6.18 M35.42 32.42 C27.25 25.33, 19.09 18.23, 5.23 6.18 M37.28 28.75 C28.12 20.78, 18.95 12.81, 8.61 3.82 M37.28 28.75 C28.64 21.23, 19.99 13.71, 8.61 3.82 M39.91 25.73 C29.49 16.67, 19.07 7.62, 11.98 1.46 M39.91 25.73 C29.74 16.89, 19.58 8.06, 11.98 1.46 M40.27 20.74 C34.73 15.93, 29.19 11.11, 16.87 0.4 M40.27 20.74 C31.34 12.98, 22.42 5.23, 16.87 0.4 M40.63 15.76 C34.94 10.81, 29.25 5.86, 22.52 0.01 M40.63 15.76 C35.33 11.15, 30.03 6.55, 22.52 0.01" stroke="#fab005" stroke-width="0.5" fill="none"></path><path d="M40.16 19.46 C40.16 20.59, 40.06 21.73, 39.86 22.84 C39.66 23.95, 39.35 25.06, 38.95 26.12 C38.55 27.18, 38.05 28.22, 37.47 29.19 C36.89 30.17, 36.21 31.11, 35.46 31.97 C34.72 32.84, 33.88 33.65, 32.99 34.37 C32.1 35.1, 31.13 35.76, 30.12 36.32 C29.12 36.88, 28.04 37.37, 26.95 37.75 C25.86 38.14, 24.71 38.44, 23.57 38.63 C22.42 38.83, 21.24 38.93, 20.08 38.93 C18.92 38.93, 17.74 38.83, 16.59 38.63 C15.45 38.44, 14.31 38.14, 13.21 37.75 C12.12 37.37, 11.05 36.88, 10.04 36.32 C9.03 35.76, 8.06 35.1, 7.17 34.37 C6.28 33.65, 5.45 32.84, 4.7 31.97 C3.95 31.11, 3.27 30.17, 2.69 29.19 C2.11 28.22, 1.61 27.18, 1.21 26.12 C0.81 25.06, 0.51 23.95, 0.31 22.84 C0.1 21.73, 0 20.59, 0 19.46 C0 18.34, 0.1 17.19, 0.31 16.08 C0.51 14.97, 0.81 13.87, 1.21 12.81 C1.61 11.75, 2.11 10.71, 2.69 9.73 C3.27 8.76, 3.95 7.82, 4.7 6.95 C5.45 6.09, 6.28 5.28, 7.17 4.55 C8.06 3.83, 9.03 3.17, 10.04 2.61 C11.05 2.04, 12.12 1.56, 13.21 1.17 C14.31 0.79, 15.45 0.49, 16.59 0.3 C17.74 0.1, 18.92 0, 20.08 0 C21.24 0, 22.42 0.1, 23.57 0.3 C24.71 0.49, 25.86 0.79, 26.95 1.17 C28.04 1.56, 29.12 2.04, 30.12 2.61 C31.13 3.17, 32.1 3.83, 32.99 4.55 C33.88 5.28, 34.72 6.09, 35.46 6.95 C36.21 7.82, 36.89 8.76, 37.47 9.73 C38.05 10.71, 38.55 11.75, 38.95 12.81 C39.35 13.87, 39.66 14.97, 39.86 16.08 C40.06 17.19, 40.11 18.9, 40.16 19.46 C40.21 20.03, 40.21 18.9, 40.16 19.46" stroke="#e67700" stroke-width="1" fill="none"></path></g><g stroke-opacity="0.6" fill-opacity="0.6" stroke-linecap="round" transform="translate(1171.785318152164 157.14375178978446) rotate(0 20.081211706889462 19.463328269754186)"><path d="M4.81 6.83 C4.81 6.83, 4.81 6.83, 4.81 6.83 M4.81 6.83 C4.81 6.83, 4.81 6.83, 4.81 6.83 M0.61 17.75 C6.15 11.38, 11.69 5.01, 15.04 1.15 M0.61 17.75 C4.43 13.36, 8.24 8.97, 15.04 1.15 M1 23.4 C6.98 16.52, 12.97 9.64, 20.68 0.76 M1 23.4 C5.42 18.32, 9.83 13.24, 20.68 0.76 M2.05 28.29 C6.96 22.64, 11.87 16.99, 25.67 1.12 M2.05 28.29 C10.02 19.12, 17.99 9.95, 25.67 1.12 M4.42 31.66 C9.53 25.78, 14.65 19.89, 29.35 2.99 M4.42 31.66 C12.79 22.03, 21.17 12.4, 29.35 2.99 M7.44 34.29 C16.47 23.89, 25.51 13.5, 33.02 4.86 M7.44 34.29 C13.63 27.16, 19.83 20.03, 33.02 4.86 M10.45 36.91 C20.22 25.68, 29.98 14.46, 36.04 7.48 M10.45 36.91 C16.68 29.76, 22.9 22.6, 36.04 7.48 M14.79 38.03 C19.92 32.12, 25.06 26.2, 38.4 10.86 M14.79 38.03 C23.42 28.09, 32.06 18.16, 38.4 10.86 M19.12 39.14 C25.66 31.62, 32.2 24.09, 40.11 14.99 M19.12 39.14 C26.49 30.66, 33.87 22.17, 40.11 14.99 M24.1 39.5 C29.79 32.96, 35.49 26.41, 39.85 21.39 M24.1 39.5 C29.33 33.49, 34.55 27.49, 39.85 21.39 M7.2 34.4 C7.2 34.4, 7.2 34.4, 7.2 34.4 M7.2 34.4 C7.2 34.4, 7.2 34.4, 7.2 34.4 M18.13 38.59 C13.02 34.15, 7.91 29.72, 1.52 24.16 M18.13 38.59 C14.77 35.68, 11.42 32.77, 1.52 24.16 M23.77 38.2 C15.28 30.82, 6.8 23.44, 0.37 17.86 M23.77 38.2 C14.91 30.49, 6.04 22.79, 0.37 17.86 M28.66 37.15 C19.38 29.09, 10.11 21.03, 1.49 13.53 M28.66 37.15 C21.18 30.65, 13.71 24.15, 1.49 13.53 M32.04 34.79 C24.55 28.28, 17.06 21.77, 2.6 9.2 M32.04 34.79 C23.31 27.2, 14.59 19.62, 2.6 9.2 M35.42 32.42 C26.04 24.27, 16.66 16.12, 5.23 6.18 M35.42 32.42 C26.72 24.86, 18.02 17.31, 5.23 6.18 M37.28 28.75 C30.36 22.73, 23.44 16.71, 8.61 3.82 M37.28 28.75 C31.24 23.49, 25.2 18.24, 8.61 3.82 M39.91 25.73 C33.61 20.25, 27.31 14.77, 11.98 1.46 M39.91 25.73 C33.91 20.52, 27.92 15.31, 11.98 1.46 M40.27 20.74 C35.23 16.36, 30.2 11.99, 16.87 0.4 M40.27 20.74 C32.9 14.34, 25.53 7.93, 16.87 0.4 M40.63 15.76 C35.93 11.67, 31.23 7.58, 22.52 0.01 M40.63 15.76 C35.8 11.56, 30.98 7.36, 22.52 0.01" stroke="#fab005" stroke-width="0.5" fill="none"></path><path d="M40.16 19.46 C40.16 20.59, 40.06 21.73, 39.86 22.84 C39.66 23.95, 39.35 25.06, 38.95 26.12 C38.55 27.18, 38.05 28.22, 37.47 29.19 C36.89 30.17, 36.21 31.11, 35.46 31.97 C34.72 32.84, 33.88 33.65, 32.99 34.37 C32.1 35.1, 31.13 35.76, 30.12 36.32 C29.12 36.88, 28.04 37.37, 26.95 37.75 C25.86 38.14, 24.71 38.44, 23.57 38.63 C22.42 38.83, 21.24 38.93, 20.08 38.93 C18.92 38.93, 17.74 38.83, 16.59 38.63 C15.45 38.44, 14.31 38.14, 13.21 37.75 C12.12 37.37, 11.05 36.88, 10.04 36.32 C9.03 35.76, 8.06 35.1, 7.17 34.37 C6.28 33.65, 5.45 32.84, 4.7 31.97 C3.95 31.11, 3.27 30.17, 2.69 29.19 C2.11 28.22, 1.61 27.18, 1.21 26.12 C0.81 25.06, 0.51 23.95, 0.31 22.84 C0.1 21.73, 0 20.59, 0 19.46 C0 18.34, 0.1 17.19, 0.31 16.08 C0.51 14.97, 0.81 13.87, 1.21 12.81 C1.61 11.75, 2.11 10.71, 2.69 9.73 C3.27 8.76, 3.95 7.82, 4.7 6.95 C5.45 6.09, 6.28 5.28, 7.17 4.55 C8.06 3.83, 9.03 3.17, 10.04 2.61 C11.05 2.04, 12.12 1.56, 13.21 1.17 C14.31 0.79, 15.45 0.49, 16.59 0.3 C17.74 0.1, 18.92 0, 20.08 0 C21.24 0, 22.42 0.1, 23.57 0.3 C24.71 0.49, 25.86 0.79, 26.95 1.17 C28.04 1.56, 29.12 2.04, 30.12 2.61 C31.13 3.17, 32.1 3.83, 32.99 4.55 C33.88 5.28, 34.72 6.09, 35.46 6.95 C36.21 7.82, 36.89 8.76, 37.47 9.73 C38.05 10.71, 38.55 11.75, 38.95 12.81 C39.35 13.87, 39.66 14.97, 39.86 16.08 C40.06 17.19, 40.11 18.9, 40.16 19.46 C40.21 20.03, 40.21 18.9, 40.16 19.46" stroke="#e67700" stroke-width="1" fill="none"></path></g><g stroke-linecap="round"><g stroke-opacity="0.6" fill-opacity="0.6" transform="translate(1122.7572987502426 302.98197691663177) rotate(0 29.021475219220065 40.875492582950415)"><path d="M0 0 C18.9 26.62, 37.81 53.25, 58.04 81.75 M0 0 C20.97 29.54, 41.94 59.07, 58.04 81.75" stroke="#e67700" stroke-width="1" fill="none"></path></g></g><mask></mask><g stroke-linecap="round"><g stroke-opacity="0.6" fill-opacity="0.6" transform="translate(1135.1986237926467 283.12680865615937) rotate(0 18.06704397238036 1.4364759287117295)"><path d="M0 0 C13.04 1.04, 26.07 2.07, 36.13 2.87 M0 0 C12.3 0.98, 24.61 1.96, 36.13 2.87" stroke="#e67700" stroke-width="1" fill="none"></path></g></g><mask></mask><g stroke-linecap="round"><g stroke-opacity="0.6" fill-opacity="0.6" transform="translate(1125.9207045559888 264.9451067038294) rotate(0 27.62639562140157 -35.380495743414826)"><path d="M0 0 C12.36 -15.83, 24.72 -31.66, 55.25 -70.76 M0 0 C15.01 -19.23, 30.03 -38.45, 55.25 -70.76" stroke="#e67700" stroke-width="1" fill="none"></path></g></g><mask></mask><g transform="translate(1076.025252686919 526.8734634822463) rotate(0 80.908935546875 46.812025459194274)"><text x="80.908935546875" y="0" font-family="Helvetica, Segoe UI Emoji" font-size="40.70610909495154px" fill="#000000" text-anchor="middle" style="white-space: pre;" direction="ltr" dominant-baseline="text-before-edge">Load</text><text x="80.908935546875" y="46.812025459194274" font-family="Helvetica, Segoe UI Emoji" font-size="40.70610909495154px" fill="#000000" text-anchor="middle" style="white-space: pre;" direction="ltr" dominant-baseline="text-before-edge">Balancer</text></g><g stroke-linecap="round" transform="translate(160.75783878885704 174.7379743925028) rotate(95.96448710125308 12.726803195017055 11.817745823944506)"><path d="M25.45 11.82 C25.45 12.5, 25.39 13.2, 25.26 13.87 C25.13 14.54, 24.94 15.22, 24.69 15.86 C24.43 16.5, 24.12 17.13, 23.75 17.73 C23.38 18.32, 22.95 18.89, 22.48 19.41 C22 19.94, 21.47 20.43, 20.91 20.87 C20.34 21.31, 19.73 21.71, 19.09 22.05 C18.45 22.39, 17.77 22.69, 17.08 22.92 C16.39 23.16, 15.66 23.34, 14.94 23.46 C14.21 23.57, 13.46 23.64, 12.73 23.64 C11.99 23.64, 11.24 23.57, 10.52 23.46 C9.79 23.34, 9.07 23.16, 8.37 22.92 C7.68 22.69, 7 22.39, 6.36 22.05 C5.73 21.71, 5.11 21.31, 4.55 20.87 C3.98 20.43, 3.45 19.94, 2.98 19.41 C2.5 18.89, 2.07 18.32, 1.71 17.73 C1.34 17.13, 1.02 16.5, 0.77 15.86 C0.52 15.22, 0.32 14.54, 0.19 13.87 C0.07 13.2, 0 12.5, 0 11.82 C0 11.13, 0.07 10.44, 0.19 9.77 C0.32 9.09, 0.52 8.42, 0.77 7.78 C1.02 7.13, 1.34 6.5, 1.71 5.91 C2.07 5.32, 2.5 4.75, 2.98 4.22 C3.45 3.7, 3.98 3.2, 4.55 2.76 C5.11 2.33, 5.73 1.93, 6.36 1.58 C7 1.24, 7.68 0.95, 8.37 0.71 C9.07 0.48, 9.79 0.3, 10.52 0.18 C11.24 0.06, 11.99 0, 12.73 0 C13.46 0, 14.21 0.06, 14.94 0.18 C15.66 0.3, 16.39 0.48, 17.08 0.71 C17.77 0.95, 18.45 1.24, 19.09 1.58 C19.73 1.93, 20.34 2.33, 20.91 2.76 C21.47 3.2, 22 3.7, 22.48 4.22 C22.95 4.75, 23.38 5.32, 23.75 5.91 C24.12 6.5, 24.43 7.13, 24.69 7.78 C24.94 8.42, 25.13 9.09, 25.26 9.77 C25.39 10.44, 25.42 11.48, 25.45 11.82 C25.49 12.16, 25.49 11.48, 25.45 11.82" stroke="#000000" stroke-width="1" fill="none"></path></g><g stroke-linecap="round"><g transform="translate(131.70884714619024 153.50068878835418) rotate(95.96448710125308 0.7666088769929047 28.391309014250794)"><path d="M0 0 C0.26 9.46, 1.28 47.32, 1.53 56.78 M0 0 C0.26 9.46, 1.28 47.32, 1.53 56.78" stroke="#000000" stroke-width="1" fill="none"></path></g></g><mask></mask><g stroke-linecap="round" transform="translate(8.820135483874765 164.89033969396178) rotate(89.86737157398699 13.317247389551994 12.106588535956007)"><path d="M0 0 C0 0, 0 0, 0 0 M0 0 C0 0, 0 0, 0 0 M-0.26 6.4 C1.16 4.77, 2.57 3.14, 4.99 0.36 M-0.26 6.4 C1.54 4.32, 3.35 2.24, 4.99 0.36 M0.13 12.04 C4.24 7.32, 8.34 2.6, 10.63 -0.03 M0.13 12.04 C3.4 8.28, 6.68 4.51, 10.63 -0.03 M-0.13 18.44 C5.17 12.34, 10.48 6.24, 15.62 0.33 M-0.13 18.44 C6.02 11.37, 12.16 4.3, 15.62 0.33 M0.27 24.08 C7.37 15.91, 14.47 7.74, 21.26 -0.07 M0.27 24.08 C5.59 17.96, 10.91 11.83, 21.26 -0.07 M5.25 24.44 C10.47 18.44, 15.69 12.43, 26.25 0.29 M5.25 24.44 C13.44 15.02, 21.63 5.6, 26.25 0.29 M10.9 24.05 C15.3 18.98, 19.71 13.91, 27.3 5.18 M10.9 24.05 C17.1 16.91, 23.3 9.77, 27.3 5.18 M15.88 24.41 C18.92 20.92, 21.95 17.43, 27.04 11.58 M15.88 24.41 C19.91 19.77, 23.94 15.14, 27.04 11.58 M21.53 24.01 C23.47 21.77, 25.42 19.53, 27.43 17.22 M21.53 24.01 C23.43 21.82, 25.33 19.63, 27.43 17.22 M0.09 24.29 C0.09 24.29, 0.09 24.29, 0.09 24.29 M0.09 24.29 C0.09 24.29, 0.09 24.29, 0.09 24.29 M5.73 23.89 C4.33 22.68, 2.93 21.46, -0.31 18.65 M5.73 23.89 C3.56 22.01, 1.39 20.12, -0.31 18.65 M12.13 24.16 C8.11 20.67, 4.1 17.18, 0.05 13.66 M12.13 24.16 C8.79 21.25, 5.45 18.35, 0.05 13.66 M18.53 24.42 C13.84 20.34, 9.15 16.27, -0.34 8.02 M18.53 24.42 C14.71 21.1, 10.9 17.79, -0.34 8.02 M24.17 24.02 C16.56 17.41, 8.95 10.79, 0.02 3.03 M24.17 24.02 C18.28 18.91, 12.4 13.79, 0.02 3.03 M26.79 21 C21.46 16.37, 16.12 11.73, 1.89 -0.65 M26.79 21 C16.87 12.38, 6.95 3.76, 1.89 -0.65 M27.15 16.02 C21.48 11.08, 15.81 6.15, 8.28 -0.39 M27.15 16.02 C22.85 12.27, 18.54 8.53, 8.28 -0.39 M26.76 10.37 C22.56 6.73, 18.37 3.08, 13.93 -0.78 M26.76 10.37 C22.46 6.64, 18.16 2.9, 13.93 -0.78 M27.12 5.39 C24.62 3.21, 22.11 1.04, 20.33 -0.52 M27.12 5.39 C25.52 4, 23.92 2.61, 20.33 -0.52" stroke="#fd7e14" stroke-width="0.5" fill="none"></path><path d="M0 0 C5.47 0, 10.94 0, 26.63 0 M0 0 C10.13 0, 20.25 0, 26.63 0 M26.63 0 C26.63 5.26, 26.63 10.52, 26.63 24.21 M26.63 0 C26.63 5.54, 26.63 11.08, 26.63 24.21 M26.63 24.21 C19.55 24.21, 12.47 24.21, 0 24.21 M26.63 24.21 C20.84 24.21, 15.04 24.21, 0 24.21 M0 24.21 C0 15.89, 0 7.56, 0 0 M0 24.21 C0 17.65, 0 11.08, 0 0" stroke="#000000" stroke-width="1" fill="none"></path></g><g stroke-linecap="round"><g transform="translate(66.52150910004275 146.38857455601806) rotate(95.96448710125308 3.7261036298696126 33.81798337267281)"><path d="M0 0 C1.24 11.27, 6.21 56.36, 7.45 67.64 M0 0 C1.24 11.27, 6.21 56.36, 7.45 67.64" stroke="#000000" stroke-width="1" fill="none"></path></g></g><mask></mask><g stroke-linecap="round" transform="translate(160.75783878885704 331.40464105916953) rotate(95.96448710125308 12.726803195017055 11.817745823944506)"><path d="M25.45 11.82 C25.45 12.5, 25.39 13.2, 25.26 13.87 C25.13 14.54, 24.94 15.22, 24.69 15.86 C24.43 16.5, 24.12 17.13, 23.75 17.73 C23.38 18.32, 22.95 18.89, 22.48 19.41 C22 19.94, 21.47 20.43, 20.91 20.87 C20.34 21.31, 19.73 21.71, 19.09 22.05 C18.45 22.39, 17.77 22.69, 17.08 22.92 C16.39 23.16, 15.66 23.34, 14.94 23.46 C14.21 23.57, 13.46 23.64, 12.73 23.64 C11.99 23.64, 11.24 23.57, 10.52 23.46 C9.79 23.34, 9.07 23.16, 8.37 22.92 C7.68 22.69, 7 22.39, 6.36 22.05 C5.73 21.71, 5.11 21.31, 4.55 20.87 C3.98 20.43, 3.45 19.94, 2.98 19.41 C2.5 18.89, 2.07 18.32, 1.71 17.73 C1.34 17.13, 1.02 16.5, 0.77 15.86 C0.52 15.22, 0.32 14.54, 0.19 13.87 C0.07 13.2, 0 12.5, 0 11.82 C0 11.13, 0.07 10.44, 0.19 9.77 C0.32 9.09, 0.52 8.42, 0.77 7.78 C1.02 7.13, 1.34 6.5, 1.71 5.91 C2.07 5.32, 2.5 4.75, 2.98 4.22 C3.45 3.7, 3.98 3.2, 4.55 2.76 C5.11 2.33, 5.73 1.93, 6.36 1.58 C7 1.24, 7.68 0.95, 8.37 0.71 C9.07 0.48, 9.79 0.3, 10.52 0.18 C11.24 0.06, 11.99 0, 12.73 0 C13.46 0, 14.21 0.06, 14.94 0.18 C15.66 0.3, 16.39 0.48, 17.08 0.71 C17.77 0.95, 18.45 1.24, 19.09 1.58 C19.73 1.93, 20.34 2.33, 20.91 2.76 C21.47 3.2, 22 3.7, 22.48 4.22 C22.95 4.75, 23.38 5.32, 23.75 5.91 C24.12 6.5, 24.43 7.13, 24.69 7.78 C24.94 8.42, 25.13 9.09, 25.26 9.77 C25.39 10.44, 25.42 11.48, 25.45 11.82 C25.49 12.16, 25.49 11.48, 25.45 11.82" stroke="#000000" stroke-width="1" fill="none"></path></g><g stroke-linecap="round"><g transform="translate(131.70884714619024 310.1673554550209) rotate(95.96448710125308 0.7666088769929047 28.391309014250794)"><path d="M0 0 C0.26 9.46, 1.28 47.32, 1.53 56.78 M0 0 C0.26 9.46, 1.28 47.32, 1.53 56.78" stroke="#000000" stroke-width="1" fill="none"></path></g></g><mask></mask><g stroke-linecap="round" transform="translate(8.820135483874765 321.5570063606285) rotate(89.86737157398699 13.317247389551994 12.106588535956007)"><path d="M0 0 C0 0, 0 0, 0 0 M0 0 C0 0, 0 0, 0 0 M-0.26 6.4 C1.37 4.52, 3.01 2.64, 4.99 0.36 M-0.26 6.4 C1.75 4.08, 3.77 1.76, 4.99 0.36 M0.13 12.04 C3.18 8.54, 6.22 5.04, 10.63 -0.03 M0.13 12.04 C4.09 7.49, 8.04 2.94, 10.63 -0.03 M-0.13 18.44 C6.17 11.2, 12.46 3.96, 15.62 0.33 M-0.13 18.44 C4.5 13.12, 9.13 7.79, 15.62 0.33 M0.27 24.08 C6.69 16.69, 13.12 9.3, 21.26 -0.07 M0.27 24.08 C4.99 18.64, 9.72 13.2, 21.26 -0.07 M5.25 24.44 C13.58 14.86, 21.9 5.29, 26.25 0.29 M5.25 24.44 C13.12 15.39, 20.99 6.34, 26.25 0.29 M10.9 24.05 C15.92 18.27, 20.95 12.48, 27.3 5.18 M10.9 24.05 C16.42 17.69, 21.94 11.34, 27.3 5.18 M15.88 24.41 C18.6 21.28, 21.32 18.16, 27.04 11.58 M15.88 24.41 C20.01 19.66, 24.13 14.92, 27.04 11.58 M21.53 24.01 C23.38 21.88, 25.23 19.75, 27.43 17.22 M21.53 24.01 C23.14 22.16, 24.75 20.31, 27.43 17.22 M0.09 24.29 C0.09 24.29, 0.09 24.29, 0.09 24.29 M0.09 24.29 C0.09 24.29, 0.09 24.29, 0.09 24.29 M5.73 23.89 C3.84 22.25, 1.95 20.6, -0.31 18.65 M5.73 23.89 C4.33 22.68, 2.93 21.46, -0.31 18.65 M12.13 24.16 C8.9 21.35, 5.67 18.54, 0.05 13.66 M12.13 24.16 C8.99 21.43, 5.85 18.7, 0.05 13.66 M18.53 24.42 C13.75 20.26, 8.97 16.11, -0.34 8.02 M18.53 24.42 C13.79 20.3, 9.04 16.18, -0.34 8.02 M24.17 24.02 C15.96 16.89, 7.76 9.75, 0.02 3.03 M24.17 24.02 C18.65 19.23, 13.13 14.43, 0.02 3.03 M26.79 21 C20.73 15.73, 14.66 10.46, 1.89 -0.65 M26.79 21 C21.7 16.58, 16.6 12.15, 1.89 -0.65 M27.15 16.02 C22.36 11.85, 17.57 7.69, 8.28 -0.39 M27.15 16.02 C22.3 11.8, 17.45 7.59, 8.28 -0.39 M26.76 10.37 C22.17 6.39, 17.59 2.4, 13.93 -0.78 M26.76 10.37 C24.15 8.11, 21.54 5.84, 13.93 -0.78 M27.12 5.39 C24.65 3.24, 22.18 1.09, 20.33 -0.52 M27.12 5.39 C25.24 3.76, 23.37 2.13, 20.33 -0.52" stroke="#fd7e14" stroke-width="0.5" fill="none"></path><path d="M0 0 C9.45 0, 18.9 0, 26.63 0 M0 0 C9.47 0, 18.94 0, 26.63 0 M26.63 0 C26.63 7.43, 26.63 14.87, 26.63 24.21 M26.63 0 C26.63 7.14, 26.63 14.27, 26.63 24.21 M26.63 24.21 C17.82 24.21, 9.01 24.21, 0 24.21 M26.63 24.21 C21.05 24.21, 15.47 24.21, 0 24.21 M0 24.21 C0 15.67, 0 7.13, 0 0 M0 24.21 C0 15.97, 0 7.73, 0 0" stroke="#000000" stroke-width="1" fill="none"></path></g><g stroke-linecap="round"><g transform="translate(66.52150910004275 303.0552412226848) rotate(95.96448710125308 3.7261036298696126 33.81798337267281)"><path d="M0 0 C1.24 11.27, 6.21 56.36, 7.45 67.64 M0 0 C1.24 11.27, 6.21 56.36, 7.45 67.64" stroke="#000000" stroke-width="1" fill="none"></path></g></g><mask></mask><g stroke-linecap="round"><g transform="translate(516.1725497619227 270.242990512437) rotate(0 272.7558016527041 -0.36413745767572436)"><path d="M0 0 C203.02 -0.27, 406.04 -0.54, 545.51 -0.73 M0 0 C213.01 -0.28, 426.02 -0.57, 545.51 -0.73" stroke="#1e1e1e" stroke-width="2" fill="none"></path></g><g transform="translate(516.1725497619227 270.242990512437) rotate(0 272.7558016527041 -0.36413745767572436)"><path d="M522.03 7.85 C530.77 4.66, 539.51 1.47, 545.51 -0.73 M522.03 7.85 C531.2 4.5, 540.37 1.15, 545.51 -0.73" stroke="#1e1e1e" stroke-width="2" fill="none"></path></g><g transform="translate(516.1725497619227 270.242990512437) rotate(0 272.7558016527041 -0.36413745767572436)"><path d="M522.01 -9.25 C530.76 -6.08, 539.5 -2.91, 545.51 -0.73 M522.01 -9.25 C531.19 -5.92, 540.36 -2.59, 545.51 -0.73" stroke="#1e1e1e" stroke-width="2" fill="none"></path></g></g><mask></mask><g stroke-linecap="round"><g transform="translate(1276.3162914810273 192.5919951007811) rotate(0 412.65650167577905 -23.254664082280556)"><path d="M0 0 C137.55 -7.75, 687.76 -38.76, 825.31 -46.51 M0 0 C137.55 -7.75, 687.76 -38.76, 825.31 -46.51" stroke="#1e1e1e" stroke-width="1" fill="none"></path></g><g transform="translate(1276.3162914810273 192.5919951007811) rotate(0 412.65650167577905 -23.254664082280556)"><path d="M802.34 -36.65 C807.33 -38.79, 812.32 -40.93, 825.31 -46.51 M802.34 -36.65 C807.6 -38.91, 812.86 -41.16, 825.31 -46.51" stroke="#1e1e1e" stroke-width="1" fill="none"></path></g><g transform="translate(1276.3162914810273 192.5919951007811) rotate(0 412.65650167577905 -23.254664082280556)"><path d="M801.38 -53.72 C806.58 -52.16, 811.78 -50.59, 825.31 -46.51 M801.38 -53.72 C806.86 -52.07, 812.33 -50.42, 825.31 -46.51" stroke="#1e1e1e" stroke-width="1" fill="none"></path></g></g><mask></mask><g transform="translate(1527.2221593910444 355.4943576300644) rotate(0 132.2890625 16.100000000000023)"><text x="0" y="0" font-family="Helvetica, Segoe UI Emoji" font-size="28px" fill="#1e1e1e" text-anchor="start" style="white-space: pre;" direction="ltr" dominant-baseline="text-before-edge">Request confirmation</text></g><g stroke-linecap="round"><g transform="translate(1271.971627054645 340.35523322741653) rotate(0 422.5243814746309 57.369877306635374)"><path d="M0 0 C140.84 19.12, 704.21 95.62, 845.05 114.74 M0 0 C140.84 19.12, 704.21 95.62, 845.05 114.74" stroke="#1e1e1e" stroke-width="1" fill="none"></path></g><g transform="translate(1271.971627054645 340.35523322741653) rotate(0 422.5243814746309 57.369877306635374)"><path d="M820.62 120.05 C828.04 118.44, 835.47 116.82, 845.05 114.74 M820.62 120.05 C826.1 118.86, 831.58 117.67, 845.05 114.74" stroke="#1e1e1e" stroke-width="1" fill="none"></path></g><g transform="translate(1271.971627054645 340.35523322741653) rotate(0 422.5243814746309 57.369877306635374)"><path d="M822.92 103.11 C829.64 106.64, 836.37 110.18, 845.05 114.74 M822.92 103.11 C827.88 105.72, 832.85 108.32, 845.05 114.74" stroke="#1e1e1e" stroke-width="1" fill="none"></path></g></g><mask></mask><g transform="translate(1538.739046092278 119.91372627584178) rotate(0 109.73046875 16.100000000000023)"><text x="0" y="0" font-family="Helvetica, Segoe UI Emoji" font-size="28px" fill="#1e1e1e" text-anchor="start" style="white-space: pre;" direction="ltr" dominant-baseline="text-before-edge">Request payment</text></g><g transform="translate(692.9240742470574 214.26271124463665) rotate(0 109.73046875 16.100000000000023)"><text x="0" y="0" font-family="Helvetica, Segoe UI Emoji" font-size="28px" fill="#1e1e1e" text-anchor="start" style="white-space: pre;" direction="ltr" dominant-baseline="text-before-edge">Request payment</text></g><g transform="translate(703.2584131598996 319.52009576573596) rotate(0 132.2890625 16.100000000000023)"><text x="0" y="0" font-family="Helvetica, Segoe UI Emoji" font-size="28px" fill="#1e1e1e" text-anchor="start" style="white-space: pre;" direction="ltr" dominant-baseline="text-before-edge">Request confirmation</text></g><g stroke-linecap="round" transform="translate(2140.646723881013 10) rotate(0 140.59039481505988 131.62771385674046)"><path d="M32 0 C77.57 0, 123.13 0, 249.18 0 C270.51 0, 281.18 10.67, 281.18 32 C281.18 94.78, 281.18 157.56, 281.18 231.26 C281.18 252.59, 270.51 263.26, 249.18 263.26 C175.57 263.26, 101.96 263.26, 32 263.26 C10.67 263.26, 0 252.59, 0 231.26 C0 176.16, 0 121.06, 0 32 C0 10.67, 10.67 0, 32 0" stroke="none" stroke-width="0" fill="#ffec99"></path><path d="M32 0 C88.87 0, 145.74 0, 249.18 0 M32 0 C109.85 0, 187.7 0, 249.18 0 M249.18 0 C270.51 0, 281.18 10.67, 281.18 32 M249.18 0 C270.51 0, 281.18 10.67, 281.18 32 M281.18 32 C281.18 96.03, 281.18 160.06, 281.18 231.26 M281.18 32 C281.18 78.87, 281.18 125.75, 281.18 231.26 M281.18 231.26 C281.18 252.59, 270.51 263.26, 249.18 263.26 M281.18 231.26 C281.18 252.59, 270.51 263.26, 249.18 263.26 M249.18 263.26 C201.41 263.26, 153.63 263.26, 32 263.26 M249.18 263.26 C176.02 263.26, 102.86 263.26, 32 263.26 M32 263.26 C10.67 263.26, 0 252.59, 0 231.26 M32 263.26 C10.67 263.26, 0 252.59, 0 231.26 M0 231.26 C0 171.68, 0 112.1, 0 32 M0 231.26 C0 185.21, 0 139.16, 0 32 M0 32 C0 10.67, 10.67 0, 32 0 M0 32 C0 10.67, 10.67 0, 32 0" stroke="#1e1e1e" stroke-width="2" fill="none"></path></g><g transform="translate(2190.8871202219516 73.24127032493391) rotate(0 90.3499984741211 68.38644353180649)"><text x="90.3499984741211" y="0" font-family="Helvetica, Segoe UI Emoji" font-size="39.64431509090231px" fill="#1e1e1e" text-anchor="middle" style="white-space: pre;" direction="ltr" dominant-baseline="text-before-edge">Payment </text><text x="90.3499984741211" y="45.59096235453765" font-family="Helvetica, Segoe UI Emoji" font-size="39.64431509090231px" fill="#1e1e1e" text-anchor="middle" style="white-space: pre;" direction="ltr" dominant-baseline="text-before-edge">Gaytway</text><text x="90.3499984741211" y="91.1819247090753" font-family="Helvetica, Segoe UI Emoji" font-size="39.64431509090231px" fill="#1e1e1e" text-anchor="middle" style="white-space: pre;" direction="ltr" dominant-baseline="text-before-edge">Authorizer</text></g><g stroke-linecap="round" transform="translate(2137.3574306147293 358.66508622614106) rotate(0 140.59039481505988 131.62771385674046)"><path d="M32 0 C80.54 0, 129.09 0, 249.18 0 C270.51 0, 281.18 10.67, 281.18 32 C281.18 106.3, 281.18 180.61, 281.18 231.26 C281.18 252.59, 270.51 263.26, 249.18 263.26 C185.93 263.26, 122.68 263.26, 32 263.26 C10.67 263.26, 0 252.59, 0 231.26 C0 175.26, 0 119.26, 0 32 C0 10.67, 10.67 0, 32 0" stroke="none" stroke-width="0" fill="#ffec99"></path><path d="M32 0 C90.21 0, 148.41 0, 249.18 0 M32 0 C88.03 0, 144.07 0, 249.18 0 M249.18 0 C270.51 0, 281.18 10.67, 281.18 32 M249.18 0 C270.51 0, 281.18 10.67, 281.18 32 M281.18 32 C281.18 78.67, 281.18 125.35, 281.18 231.26 M281.18 32 C281.18 108.61, 281.18 185.23, 281.18 231.26 M281.18 231.26 C281.18 252.59, 270.51 263.26, 249.18 263.26 M281.18 231.26 C281.18 252.59, 270.51 263.26, 249.18 263.26 M249.18 263.26 C192.19 263.26, 135.19 263.26, 32 263.26 M249.18 263.26 C192.56 263.26, 135.94 263.26, 32 263.26 M32 263.26 C10.67 263.26, 0 252.59, 0 231.26 M32 263.26 C10.67 263.26, 0 252.59, 0 231.26 M0 231.26 C0 187.97, 0 144.68, 0 32 M0 231.26 C0 160.34, 0 89.42, 0 32 M0 32 C0 10.67, 10.67 0, 32 0 M0 32 C0 10.67, 10.67 0, 32 0" stroke="#1e1e1e" stroke-width="2" fill="none"></path></g><g transform="translate(2190.9228239039103 421.90635655107496) rotate(0 87.0250015258789 68.38644353180649)"><text x="87.0250015258789" y="0" font-family="Helvetica, Segoe UI Emoji" font-size="39.64431509090231px" fill="#1e1e1e" text-anchor="middle" style="white-space: pre;" direction="ltr" dominant-baseline="text-before-edge">Payment </text><text x="87.0250015258789" y="45.59096235453765" font-family="Helvetica, Segoe UI Emoji" font-size="39.64431509090231px" fill="#1e1e1e" text-anchor="middle" style="white-space: pre;" direction="ltr" dominant-baseline="text-before-edge">Gaytway</text><text x="87.0250015258789" y="91.1819247090753" font-family="Helvetica, Segoe UI Emoji" font-size="39.64431509090231px" fill="#1e1e1e" text-anchor="middle" style="white-space: pre;" direction="ltr" dominant-baseline="text-before-edge">Confirmer</text></g></svg>